<svg width="91" height="57" viewBox="0 0 91 57" fill="none" xmlns="http://www.w3.org/2000/svg">
<g clip-path="url(#clip0)">
<path fill-rule="evenodd" clip-rule="evenodd" d="M61.2374 18.5297C62.4185 18.1306 63.5995 18.3748 63.8298 19.0776C64.0601 19.7804 63.2807 20.6798 62.0583 21.0789C60.8359 21.4779 59.6962 21.2397 59.4659 20.5369C59.2356 19.8341 60.0151 18.9347 61.2374 18.5297Z" fill="#E3051E"/>
<path fill-rule="evenodd" clip-rule="evenodd" d="M67.2551 16.7369C68.4361 16.3378 69.6172 16.582 69.8416 17.2848C70.066 17.9877 69.2924 18.8811 68.07 19.2861C66.8476 19.6911 65.7079 19.441 65.4776 18.7381C65.2473 18.0353 66.0327 17.1419 67.2492 16.7369" fill="#E3051E"/>
<path fill-rule="evenodd" clip-rule="evenodd" d="M70.3609 19.0954C71.542 18.6904 72.723 18.9346 72.9533 19.6374C73.1836 20.3403 72.3982 21.2396 71.1818 21.6387C69.9653 22.0377 68.8197 21.7995 68.5953 21.0967C68.3709 20.3939 69.1444 19.4945 70.3668 19.0954" fill="#E3051E"/>
<path fill-rule="evenodd" clip-rule="evenodd" d="M67.7687 22.83C68.9498 22.425 70.1308 22.6692 70.3552 23.372C70.5796 24.0748 69.806 24.9742 68.5837 25.3733C67.3613 25.7723 66.2216 25.5341 65.9913 24.8313C65.7609 24.1284 66.5463 23.2291 67.7628 22.83" fill="#E3051E"/>
<path fill-rule="evenodd" clip-rule="evenodd" d="M61.8281 24.5751C63.0092 24.1701 64.1902 24.4143 64.4146 25.1171C64.639 25.8199 63.8654 26.7193 62.643 27.1184C61.4207 27.5174 60.2809 27.2792 60.0506 26.5764C59.8203 25.8735 60.6057 24.9742 61.8222 24.5751" fill="#E3051E"/>
<path fill-rule="evenodd" clip-rule="evenodd" d="M58.6212 22.1926C59.8023 21.7936 60.9833 22.0378 61.2077 22.7406C61.4321 23.4434 60.6585 24.3368 59.4361 24.7419C58.2138 25.1469 57.074 24.8967 56.8437 24.1939C56.6134 23.4911 57.3988 22.5977 58.6153 22.1926" fill="#E3051E"/>
<path fill-rule="evenodd" clip-rule="evenodd" d="M35.4849 3.57385C61.9463 -4.04997 86.5654 0.953161 90.4746 14.7296C94.3839 28.5061 76.0953 45.8622 49.6339 53.4444C31.9181 58.5428 14.9995 57.977 4.59448 52.9024C16.1983 55.9519 32.6917 55.5945 46.8289 51.5265C70.2137 44.7901 86.3941 29.4472 82.9218 17.2491C81.3864 11.829 76.243 7.93968 68.95 5.88482C52.681 1.30457 32.8275 4.72933 16.3932 11.4419L16.2633 11.4955C22.3471 8.11822 28.797 5.46011 35.4849 3.57385Z" fill="#E3051E"/>
<path d="M65.194 34.5453C64.9047 36.0701 63.7768 37.5234 62.5957 37.5234C61.4147 37.5234 61.1017 36.4989 61.1017 35.6353C61.1017 33.6877 62.454 31.6387 64.3968 31.6387C64.8395 31.6335 65.2782 31.7228 65.6842 31.9008L65.194 34.5453ZM59.336 41.4663C60.0602 41.8605 60.8758 42.0517 61.6981 42.0203C62.664 42.0463 63.6084 41.7301 64.3673 41.1268C65.1822 40.424 65.6192 39.2745 65.9381 37.6127L67.1191 31.1146C66.3341 30.7621 65.4864 30.5736 64.6271 30.5607C61.6213 30.5607 59.6726 33.2112 59.6903 35.8735C59.6903 37.2732 60.4934 38.6074 62.0524 38.6074C62.6173 38.6046 63.1707 38.4468 63.6534 38.1509C64.1361 37.855 64.5299 37.4322 64.7925 36.9278H64.8397L64.5799 38.119C64.1134 40.2513 63.0858 40.9303 61.7808 40.9303C61.0628 40.9405 60.3545 40.7619 59.7257 40.4121L59.336 41.4663ZM52.3914 38.6074L53.1001 34.7895C53.4544 32.8359 54.8067 31.6804 55.7515 31.6804C56.6964 31.6804 56.9739 32.2761 56.9739 33.0623C56.97 33.4007 56.9324 33.7379 56.8617 34.0688L56.0113 38.6074H57.3459L58.214 34.0212C58.2946 33.6048 58.342 33.1825 58.3557 32.7585C58.3557 31.1027 57.3105 30.5666 56.3775 30.5666C55.7924 30.5794 55.2205 30.744 54.7168 31.0444C54.2131 31.3448 53.7946 31.7711 53.5016 32.282L53.6906 30.7394H52.5095C52.4091 31.3886 52.3147 32.151 52.1375 33.0325L51.0923 38.6074H52.3914ZM49.8817 29.3933C50.001 29.3957 50.1196 29.3738 50.2303 29.3289C50.341 29.2839 50.4416 29.2169 50.5259 29.1318C50.6103 29.0467 50.6768 28.9453 50.7213 28.8336C50.7659 28.7219 50.7876 28.6023 50.7852 28.482C50.7944 28.3727 50.7806 28.2626 50.7447 28.159C50.7088 28.0553 50.6517 27.9605 50.577 27.8807C50.5023 27.8009 50.4118 27.7379 50.3113 27.6957C50.2108 27.6536 50.1027 27.6333 49.9939 27.6362C49.8766 27.637 49.7605 27.6613 49.6526 27.7076C49.5446 27.754 49.4469 27.8215 49.365 27.9063C49.2832 27.9911 49.2188 28.0914 49.1757 28.2015C49.1326 28.3116 49.1117 28.4292 49.114 28.5475C49.1041 28.6551 49.1166 28.7635 49.1508 28.8658C49.1849 28.9682 49.2399 29.0622 49.3122 29.1419C49.3845 29.2215 49.4725 29.285 49.5706 29.3283C49.6686 29.3716 49.7746 29.3938 49.8817 29.3933ZM48.7006 38.6074L50.1947 30.7394H48.8719L47.372 38.6074H48.7006ZM44.4489 34.724C44.1123 36.5108 42.8722 37.7021 41.8446 37.7021C40.699 37.7021 40.3801 36.7134 40.3801 35.7723C40.3801 33.6757 41.8269 31.6745 43.693 31.6745C44.1433 31.66 44.5888 31.7713 44.9803 31.9961L44.4489 34.724ZM45.8779 27.0645L45.187 30.8347C44.7492 30.651 44.2793 30.5578 43.8052 30.5607C41.0533 30.5607 38.9983 33.1278 38.9983 35.9212C38.9983 37.5293 39.8191 38.7801 41.3309 38.7801C41.906 38.7594 42.4659 38.5881 42.9556 38.2832C43.4453 37.9783 43.848 37.5502 44.1241 37.0409H44.1595L43.9469 38.6014H45.1693C45.2319 37.7652 45.3463 36.9337 45.5118 36.1118L47.242 27.0645H45.8779ZM36.6126 38.6074L38.8034 27.0645H37.4393L35.2662 38.6074H36.6126ZM31.1325 31.6328C32.5321 31.6328 32.9513 32.9193 32.9513 33.8306C32.9513 35.6651 31.7703 37.714 30.1818 37.714C29.042 37.714 28.3511 36.7848 28.3511 35.5043C28.3452 33.6996 29.4613 31.6328 31.1325 31.6328ZM31.2801 30.5607C28.7527 30.5607 26.9693 32.9431 26.9693 35.5519C26.9693 37.3387 28.0618 38.7861 30.0046 38.7861C32.6147 38.7861 34.3154 36.2666 34.3154 33.8425C34.3154 32.1629 33.3824 30.5607 31.2979 30.5607H31.2801ZM18.8968 27.6541L16.8182 38.6074H18.1528L19.1212 33.4554H24.1053L23.1427 38.6074H24.4773L26.5736 27.6541H25.1977L24.3297 32.2701H19.3456L20.2314 27.6541H18.8968ZM11.592 28.7739C11.9617 28.6878 12.3407 28.6498 12.7199 28.6607C13.9423 28.6607 14.8104 29.1789 14.8104 30.3522C14.8104 31.6685 13.7179 32.7883 12.029 32.7883H10.848L11.592 28.7739ZM8.40908 38.6074H9.74367L10.6295 33.8425H11.8105C12.8853 33.8425 13.4345 34.4739 13.5112 35.9688C13.552 36.8563 13.6388 37.741 13.7711 38.6193H15.1529C14.9592 37.6377 14.8467 36.6416 14.8163 35.6413C14.7336 34.5036 14.3675 33.6936 13.6352 33.4315V33.3958C14.348 33.2225 14.9851 32.8193 15.4499 32.2473C15.9146 31.6754 16.1815 30.9661 16.2099 30.2272C16.2095 29.8889 16.1377 29.5546 15.9992 29.2465C15.8607 28.9384 15.6588 28.6636 15.4068 28.4403C14.6679 27.8647 13.7461 27.5809 12.8144 27.6422C12.0209 27.6423 11.2294 27.7242 10.4523 27.8864L8.40908 38.6074ZM3.18293 28.7739C3.55259 28.6878 3.93162 28.6498 4.31084 28.6607C5.53322 28.6607 6.4013 29.1789 6.4013 30.3522C6.4013 31.6685 5.30882 32.7883 3.61992 32.7883H2.43887L3.18293 28.7739ZM0 38.6074H1.33459L2.22038 33.8425H3.40143C4.48209 33.8425 5.02537 34.4739 5.10805 35.9688C5.14886 36.8563 5.23559 37.741 5.36788 38.6193H6.74971C6.55607 37.6377 6.44348 36.6416 6.41311 35.6413C6.33043 34.5036 5.9584 33.6936 5.23206 33.4315V33.3958C5.94433 33.2216 6.58095 32.8181 7.04552 32.2464C7.5101 31.6746 7.77732 30.9658 7.80675 30.2272C7.80632 29.8889 7.73448 29.5546 7.59601 29.2465C7.45753 28.9384 7.25559 28.6636 7.00363 28.4403C6.26473 27.8647 5.3429 27.5809 4.41123 27.6422C3.61765 27.642 2.82615 27.7238 2.04912 27.8864L0 38.6074Z" fill="#333333"/>
</g>
<defs>
<clipPath id="clip0">
<rect width="91" height="57" fill="white"/>
</clipPath>
</defs>
</svg>
