<svg width="40" height="40" viewBox="0 0 40 40" fill="none" xmlns="http://www.w3.org/2000/svg">
<rect x="0.876953" width="39.1232" height="39.1232" fill="#ECECEC"/>
<path d="M20.2751 12.4265C22.5702 12.4265 22.83 12.4265 23.6961 12.4698C24.5189 12.5131 24.9952 12.643 25.2984 12.7729C25.6881 12.9462 25.9912 13.1194 26.2944 13.4225C26.5975 13.7256 26.7707 13.9855 26.9439 14.4185C27.0738 14.7216 27.2037 15.1547 27.247 16.0208C27.2904 16.9301 27.2904 17.19 27.2904 19.4418C27.2904 21.7369 27.2904 21.9967 27.247 22.8628C27.2037 23.6856 27.0738 24.1619 26.9439 24.4651C26.7707 24.8548 26.5975 25.1579 26.2944 25.4611C25.9912 25.7642 25.7314 25.9374 25.2984 26.1106C24.9952 26.2406 24.5622 26.3705 23.6961 26.4138C22.7867 26.4571 22.5269 26.4571 20.2751 26.4571C17.98 26.4571 17.7201 26.4571 16.854 26.4138C16.0313 26.3705 15.5549 26.2406 15.2518 26.1106C14.862 25.9374 14.5589 25.7642 14.2558 25.4611C13.9527 25.1579 13.7794 24.8981 13.6062 24.4651C13.4763 24.1619 13.3464 23.7289 13.3031 22.8628C13.2598 21.9534 13.2598 21.6936 13.2598 19.4418C13.2598 17.1467 13.2598 16.8868 13.3031 16.0208C13.3464 15.198 13.4763 14.7216 13.6062 14.4185C13.7794 14.0288 13.9527 13.7256 14.2558 13.4225C14.5589 13.1194 14.8187 12.9462 15.2518 12.7729C15.5549 12.643 15.9879 12.5131 16.854 12.4698C17.7634 12.4265 18.0233 12.4265 20.2751 12.4265ZM20.2751 10.8676C17.98 10.8676 17.6768 10.8676 16.7674 10.9109C15.858 10.9542 15.2518 11.0841 14.6888 11.3006C14.1259 11.5171 13.6495 11.8202 13.1732 12.2966C12.6968 12.7729 12.3937 13.2493 12.1772 13.8122C11.9607 14.3752 11.8308 14.9815 11.7874 15.8908C11.7441 16.8002 11.7441 17.1034 11.7441 19.3985C11.7441 21.6936 11.7441 21.9967 11.7874 22.9061C11.8308 23.8155 11.9607 24.4218 12.1772 24.9847C12.3937 25.5477 12.6968 26.024 13.1732 26.5004C13.6495 26.9767 14.1259 27.2799 14.6888 27.4964C15.2518 27.7129 15.858 27.8428 16.7674 27.8861C17.6768 27.9294 17.98 27.9294 20.2751 27.9294C22.5702 27.9294 22.8733 27.9294 23.7827 27.8861C24.6921 27.8428 25.2984 27.7129 25.8613 27.4964C26.4243 27.2799 26.9006 26.9767 27.377 26.5004C27.8533 26.024 28.1564 25.5477 28.373 24.9847C28.5895 24.4218 28.7194 23.8155 28.7627 22.9061C28.806 21.9967 28.806 21.6936 28.806 19.3985C28.806 17.1034 28.806 16.8002 28.7627 15.8908C28.7194 14.9815 28.5895 14.3752 28.373 13.8122C28.1564 13.2493 27.8533 12.7729 27.377 12.2966C26.9006 11.8202 26.4243 11.5171 25.8613 11.3006C25.2984 11.0841 24.6921 10.9542 23.7827 10.9109C22.9166 10.8676 22.6135 10.8676 20.2751 10.8676Z" fill="#AD2131"/>
<path d="M20.2751 15.0248C17.85 15.0248 15.9013 16.9735 15.9013 19.3985C15.9013 21.8236 17.85 23.7723 20.2751 23.7723C22.7001 23.7723 24.6488 21.8236 24.6488 19.3985C24.6488 16.9735 22.7001 15.0248 20.2751 15.0248ZM20.2751 22.2133C18.7161 22.2133 17.417 20.9575 17.417 19.3552C17.417 17.7963 18.6728 16.4971 20.2751 16.4971C21.834 16.4971 23.1331 17.753 23.1331 19.3552C23.1331 20.9575 21.8773 22.2133 20.2751 22.2133Z" fill="#AD2131"/>
<path d="M25.8613 14.8516C25.8613 15.4145 25.385 15.8909 24.822 15.8909C24.2591 15.8909 23.7827 15.4145 23.7827 14.8516C23.7827 14.2886 24.2591 13.8123 24.822 13.8123C25.385 13.8123 25.8613 14.2886 25.8613 14.8516Z" fill="#AD2131"/>
</svg>
